<svg width="32" height="30" viewBox="0 0 32 30" fill="none" xmlns="http://www.w3.org/2000/svg">
<g id="Like">
<g id="Vector">
<path d="M1 11.667C1 9.36581 2.86548 7.50033 5.16667 7.50033C7.46785 7.50033 9.33333 9.36581 9.33333 11.667V25.0003C9.33333 27.3015 7.46785 29.167 5.16667 29.167C2.86548 29.167 1 27.3015 1 25.0003V11.667Z" stroke="#0B6E4F" stroke-width="1.5"/>
<path d="M15.2924 2.81691L11.5748 8.85795C10.5767 10.4799 10.0776 11.2909 9.77584 12.1796C9.68379 12.4507 9.60578 12.7263 9.5421 13.0054C9.33333 13.9205 9.33333 14.8727 9.33333 16.7771V22.5003C9.33333 26.1822 12.3181 29.167 16 29.167H20.8497C24.0062 29.167 26.8917 27.3836 28.3033 24.5604L30.2175 20.7321C32.1084 16.9501 29.3583 12.5003 25.13 12.5003H23.9804C21.0988 12.5003 18.8952 9.93178 19.3333 7.08366L19.7384 4.4507C19.9636 2.98701 18.8311 1.66699 17.3502 1.66699C16.5111 1.66699 15.7321 2.1023 15.2924 2.81691Z" stroke="#0B6E4F" stroke-width="1.5"/>
</g>
</g>
</svg>
